# xmcd CD database file
#
# Track frame offsets:
#	150
#	24673
#	47255
#	71738
#	93945
#	119335
#	142688
#
# Disc length: 2205 seconds
#
# Revision: 0
# Processed by: cddbd v1.5.1PL2 Copyright (c) Steve Scherf et al.
# Submitted via: CDex 1.51
#
DISCID=52089b07
DTITLE=里 アンナ - 恋し恋しや
DYEAR=2005
DGENRE=JPop
TTITLE0=恋し恋しや
TTITLE1=あなたしかいなくて
TTITLE2=コノソラの先
TTITLE3=MOON BEACH
TTITLE4=月の足跡
TTITLE5=俊良主節(奄美島唄)
TTITLE6=ふるさと
EXTD=YEAR: 2005.6
EXTT0=
EXTT1=
EXTT2=
EXTT3=
EXTT4=
EXTT5=
EXTT6=
PLAYORDER=
